# xmcd
#
# Track frame offsets:
#	150
#	2946
#	14737
#	26655
#	46628
#	54971
#	72926
#	87068
#	97366
#	114492
#	125670
#	139540
#	149615
#	161404
#	176332
#	192169
#	219308
#	233630
#	247343
#	255576
#	266229
#	284293
#	299411
#	306770
#	314662
#	328355
#	345739
#
# Disc length: 4826 seconds
#
# Revision: 0
# Processed by: cddbd v1.5.1PL2 Copyright (c) Steve Scherf et al.
# Submitted via: EasyCDDAExtractor 8.1.2.3
#
DISCID=a012d81b
DTITLE=Inspectah Deck - Undadogz Vol. 1
DYEAR=2004
DGENRE=Rap
TTITLE0=Intro
TTITLE1=Urban Paisan
TTITLE2=Wake Up
TTITLE3=Animette
TTITLE4=Same Shit (Different Day)
TTITLE5=Where You At
TTITLE6=All My Life
TTITLE7=Right Now
TTITLE8=Park Hillz Finest
TTITLE9=Blades
TTITLE10=You Ready
TTITLE11=Nobody Scared
TTITLE12=Ghetto (G.H.E.T.T.O.)
TTITLE13=Do You Really
TTITLE14=Cream '04
TTITLE15=A.W.O.L. (Animal Way Of Life)
TTITLE16=Scared 2 Death
TTITLE17=Homicide Housing (Remix)
TTITLE18=Gooch Freestyle
TTITLE19=Kidz From Da Hood
TTITLE20=Make It
TTITLE21=Graveshift
TTITLE22=Promises
TTITLE23=Who's Live
TTITLE24=10304
TTITLE25=Run Nigga
TTITLE26=Homicide Housing '04
EXTD=
EXTT0=
EXTT1=
EXTT2=
EXTT3=
EXTT4=
EXTT5=
EXTT6=
EXTT7=
EXTT8=
EXTT9=
EXTT10=
EXTT11=
EXTT12=
EXTT13=
EXTT14=
EXTT15=
EXTT16=
EXTT17=
EXTT18=
EXTT19=
EXTT20=
EXTT21=
EXTT22=
EXTT23=
EXTT24=
EXTT25=
EXTT26=
PLAYORDER=
